<?xml version="1.0" encoding="UTF-8" standalone="no"?>
<svg
   xmlns:dc="http://purl.org/dc/elements/1.1/"
   xmlns:cc="http://creativecommons.org/ns#"
   xmlns:rdf="http://www.w3.org/1999/02/22-rdf-syntax-ns#"
   xmlns:svg="http://www.w3.org/2000/svg"
   xmlns="http://www.w3.org/2000/svg"
   xmlns:sodipodi="http://sodipodi.sourceforge.net/DTD/sodipodi-0.dtd"
   xmlns:inkscape="http://www.inkscape.org/namespaces/inkscape"
   sodipodi:docname="binoculars2.svg"
   inkscape:version="1.0 (6e3e5246a0, 2020-05-07)"
   id="svg7826"
   version="1.1"
   viewBox="0 0 6.6145177 4.2616228"
   height="4.2616229mm"
   width="6.6145177mm">
  <defs
     id="defs7820" />
  <sodipodi:namedview
     inkscape:window-maximized="1"
     inkscape:window-y="27"
     inkscape:window-x="1920"
     inkscape:window-height="1376"
     inkscape:window-width="2560"
     showguides="false"
     showgrid="false"
     inkscape:document-rotation="0"
     inkscape:current-layer="layer1"
     inkscape:document-units="mm"
     inkscape:cy="3.912404"
     inkscape:cx="26.471373"
     inkscape:zoom="7.061854"
     inkscape:pageshadow="2"
     inkscape:pageopacity="0.0"
     borderopacity="1.0"
     bordercolor="#666666"
     pagecolor="#ffffff"
     id="base" />
  <metadata
     id="metadata7823">
    <rdf:RDF>
      <cc:Work
         rdf:about="">
        <dc:format>image/svg+xml</dc:format>
        <dc:type
           rdf:resource="http://purl.org/dc/dcmitype/StillImage" />
        <dc:title></dc:title>
      </cc:Work>
    </rdf:RDF>
  </metadata>
  <g
     transform="translate(-81.346619,-141.60173)"
     style="display:inline"
     id="layer1"
     inkscape:groupmode="layer"
     inkscape:label="Layer 1">
    <path
       d="m 83.479987,141.60173 c -0.361057,0 -0.722079,0.19814 -0.882952,0.59453 -0.203031,0.0832 -0.37249,0.23186 -0.481274,0.4224 l -0.515594,0.94077 c -0.539136,0.79812 -0.18178,1.89045 0.724815,2.21563 0.906594,0.32518 1.876672,-0.29094 1.967733,-1.24978 0.0046,-0.0465 0.0068,-0.0932 0.0067,-0.13992 1.36e-4,-0.0992 -0.0096,-0.19805 -0.02904,-0.29529 -0.01306,-0.0607 -0.02999,-0.12056 -0.05069,-0.17912 0.176106,-0.36184 0.691667,-0.36184 0.867772,0 -0.0207,0.0588 -0.03763,0.11884 -0.05069,0.17978 -0.01945,0.0972 -0.02917,0.19612 -0.02904,0.29529 3.4e-5,0.0451 0.0023,0.0902 0.0067,0.13517 0.08136,0.89006 0.928951,1.50417 1.800093,1.30429 0.871141,-0.19987 1.366167,-1.12198 1.051385,-1.95849 l -0.644163,-1.25295 c -0.114735,-0.19872 -0.295238,-0.35127 -0.510315,-0.43124 -0.331567,-0.78119 -1.441609,-0.77272 -1.761152,0.0135 -0.184744,-0.0929 -0.402659,-0.0929 -0.587403,0 -0.160873,-0.39639 -0.521894,-0.59453 -0.882952,-0.59453 z m 3.004466,1.79217 c 0.272801,-5.4e-4 0.53361,0.1121 0.72046,0.31086 h 0.0041 l 0.05135,0.0628 c 0.519664,0.64906 0.05555,1.61084 -0.775899,1.6079 -0.547524,2.7e-4 -0.991945,-0.44261 -0.993437,-0.99013 -4.73e-4,-0.0964 0.01336,-0.1922 0.04118,-0.28446 0.127861,-0.41911 0.514078,-0.7059 0.952252,-0.707 z m -3.681364,0.001 c 0.417431,-0.008 0.83374,0.24419 0.97192,0.70713 0.02798,0.0918 0.04204,0.18719 0.04184,0.28314 -0.0015,0.54779 -0.446308,0.99088 -0.994097,0.99014 -0.813678,-0.003 -1.276663,-0.93151 -0.789364,-1.58309 0.197966,-0.2647 0.484085,-0.39188 0.769697,-0.39732 z"
       style="color:#000000;font-style:normal;font-variant:normal;font-weight:normal;font-stretch:normal;font-size:medium;line-height:normal;font-family:sans-serif;font-variant-ligatures:normal;font-variant-position:normal;font-variant-caps:normal;font-variant-numeric:normal;font-variant-alternates:normal;font-variant-east-asian:normal;font-feature-settings:normal;font-variation-settings:normal;text-indent:0;text-align:start;text-decoration:none;text-decoration-line:none;text-decoration-style:solid;text-decoration-color:#000000;letter-spacing:normal;word-spacing:normal;text-transform:none;writing-mode:lr-tb;direction:ltr;text-orientation:mixed;dominant-baseline:auto;baseline-shift:baseline;text-anchor:start;white-space:normal;shape-padding:0;shape-margin:0;inline-size:0;clip-rule:nonzero;display:inline;overflow:visible;visibility:visible;isolation:auto;mix-blend-mode:normal;color-interpolation:sRGB;color-interpolation-filters:linearRGB;solid-color:#000000;solid-opacity:1;vector-effect:none;fill:#ffffff;fill-opacity:1;fill-rule:nonzero;stroke:none;stroke-width:0.0675842;stroke-linecap:butt;stroke-linejoin:miter;stroke-miterlimit:4;stroke-dasharray:none;stroke-dashoffset:0;stroke-opacity:1;color-rendering:auto;image-rendering:auto;shape-rendering:auto;text-rendering:auto;enable-background:accumulate;stop-color:#000000"
       id="path7946" />
  </g>
</svg>
