<?xml version="1.0" encoding="UTF-8" standalone="no"?>
<svg
   xmlns:dc="http://purl.org/dc/elements/1.1/"
   xmlns:cc="http://creativecommons.org/ns#"
   xmlns:rdf="http://www.w3.org/1999/02/22-rdf-syntax-ns#"
   xmlns:svg="http://www.w3.org/2000/svg"
   xmlns="http://www.w3.org/2000/svg"
   xmlns:sodipodi="http://sodipodi.sourceforge.net/DTD/sodipodi-0.dtd"
   xmlns:inkscape="http://www.inkscape.org/namespaces/inkscape"
   sodipodi:docname="marker-green.svg"
   inkscape:version="1.0 (6e3e5246a0, 2020-05-07)"
   id="svg1958"
   version="1.1"
   viewBox="0 0 8.5896835 10.823675"
   height="10.823675mm"
   width="8.5896835mm">
  <defs
     id="defs1952" />
  <sodipodi:namedview
     inkscape:window-maximized="0"
     inkscape:window-y="110"
     inkscape:window-x="2003"
     inkscape:window-height="1053"
     inkscape:window-width="1428"
     showgrid="false"
     inkscape:document-rotation="0"
     inkscape:current-layer="layer1"
     inkscape:document-units="mm"
     inkscape:cy="17.593977"
     inkscape:cx="20.511091"
     inkscape:zoom="11.2"
     inkscape:pageshadow="2"
     inkscape:pageopacity="0.0"
     borderopacity="1.0"
     bordercolor="#666666"
     pagecolor="#ffffff"
     id="base" />
  <metadata
     id="metadata1955">
    <rdf:RDF>
      <cc:Work
         rdf:about="">
        <dc:format>image/svg+xml</dc:format>
        <dc:type
           rdf:resource="http://purl.org/dc/dcmitype/StillImage" />
        <dc:title></dc:title>
      </cc:Work>
    </rdf:RDF>
  </metadata>
  <g
     transform="translate(-118.16944,-151.07031)"
     id="layer1"
     inkscape:groupmode="layer"
     inkscape:label="Layer 1">
    <path
       id="path1011"
       d="m 120.63455,160.53575 c -3.87515,-3.78301 -3.10408,-9.46544 1.76794,-9.46544 4.81176,0 5.95957,5.73737 1.8126,9.46126 -1.06556,0.95685 -1.06556,0.95685 -1.80561,1.36241 -0.77772,-0.41989 -0.81311,-0.41928 -1.77493,-1.35823 z"
       style="fill:#ffffff;fill-opacity:1;stroke-width:0.279175"
       sodipodi:nodetypes="ssscs" />
    <path
       sodipodi:nodetypes="ssscs"
       style="fill:#60b15c;fill-opacity:1;stroke-width:0.26181"
       d="m 120.76972,160.33158 c -3.58889,-3.59247 -2.87477,-8.98869 1.63733,-8.98869 4.45631,0 5.51933,5.44839 1.67871,8.98472 -0.98685,0.90866 -0.98685,0.90866 -1.67222,1.29379 -0.7203,-0.39874 -0.75305,-0.39816 -1.64382,-1.28982 z"
       id="path1011-6" />
    <path
       d="m 121.43386,153.75908 c -0.28885,0 -0.57768,0.15852 -0.70638,0.47563 -0.16243,0.0666 -0.29799,0.18549 -0.38502,0.33793 l -0.41249,0.75263 c -0.43131,0.6385 -0.14542,1.51238 0.57987,1.77253 0.72528,0.26015 1.50136,-0.23276 1.57421,-0.99984 0.004,-0.0372 0.005,-0.0746 0.005,-0.11194 1.1e-4,-0.0794 -0.008,-0.15844 -0.0232,-0.23623 -0.0104,-0.0486 -0.024,-0.0965 -0.0406,-0.14331 0.14089,-0.28947 0.55335,-0.28947 0.69423,0 -0.0166,0.047 -0.0301,0.0951 -0.0405,0.14383 -0.0156,0.0778 -0.0233,0.1569 -0.0232,0.23624 3e-5,0.0361 0.002,0.0722 0.005,0.10814 0.0651,0.71206 0.74317,1.20335 1.44009,1.04345 0.69693,-0.1599 1.09296,-0.8976 0.84113,-1.56682 l -0.51534,-1.00238 c -0.0918,-0.15898 -0.2362,-0.28102 -0.40826,-0.34499 -0.26526,-0.62497 -1.15331,-0.6182 -1.40894,0.0108 -0.1478,-0.0743 -0.32214,-0.0743 -0.46993,0 -0.12871,-0.31712 -0.41753,-0.47563 -0.70638,-0.47563 z m 2.40361,1.43376 c 0.21825,-5.3e-4 0.42689,0.0897 0.57637,0.24869 h 0.003 l 0.0411,0.0502 c 0.41574,0.51926 0.0444,1.28869 -0.62073,1.28635 -0.43803,1.6e-4 -0.79357,-0.3541 -0.79476,-0.79212 -5.3e-4,-0.0771 0.0107,-0.15376 0.0329,-0.22757 0.10228,-0.3353 0.41126,-0.56474 0.76181,-0.56562 z m -2.94514,7.9e-4 c 0.33395,-0.006 0.667,0.19536 0.77755,0.56571 0.0224,0.0734 0.0336,0.14975 0.0335,0.22652 -0.002,0.43824 -0.35705,0.79272 -0.79529,0.79213 -0.65095,-0.002 -1.02135,-0.74522 -0.6315,-1.26649 0.15837,-0.21177 0.38727,-0.31352 0.61577,-0.31787 z"
       style="color:#000000;font-style:normal;font-variant:normal;font-weight:normal;font-stretch:normal;font-size:medium;line-height:normal;font-family:sans-serif;font-variant-ligatures:normal;font-variant-position:normal;font-variant-caps:normal;font-variant-numeric:normal;font-variant-alternates:normal;font-variant-east-asian:normal;font-feature-settings:normal;font-variation-settings:normal;text-indent:0;text-align:start;text-decoration:none;text-decoration-line:none;text-decoration-style:solid;text-decoration-color:#000000;letter-spacing:normal;word-spacing:normal;text-transform:none;writing-mode:lr-tb;direction:ltr;text-orientation:mixed;dominant-baseline:auto;baseline-shift:baseline;text-anchor:start;white-space:normal;shape-padding:0;shape-margin:0;inline-size:0;clip-rule:nonzero;display:inline;overflow:visible;visibility:visible;isolation:auto;mix-blend-mode:normal;color-interpolation:sRGB;color-interpolation-filters:linearRGB;solid-color:#000000;solid-opacity:1;vector-effect:none;fill:#ffffff;fill-opacity:1;fill-rule:nonzero;stroke:none;stroke-width:0.0540684;stroke-linecap:butt;stroke-linejoin:miter;stroke-miterlimit:4;stroke-dasharray:none;stroke-dashoffset:0;stroke-opacity:1;color-rendering:auto;image-rendering:auto;shape-rendering:auto;text-rendering:auto;enable-background:accumulate;stop-color:#000000"
       id="path7946" />
  </g>
</svg>
