<?xml version="1.0" encoding="UTF-8" standalone="no"?>
<svg
   xmlns:dc="http://purl.org/dc/elements/1.1/"
   xmlns:cc="http://creativecommons.org/ns#"
   xmlns:rdf="http://www.w3.org/1999/02/22-rdf-syntax-ns#"
   xmlns:svg="http://www.w3.org/2000/svg"
   xmlns="http://www.w3.org/2000/svg"
   xmlns:sodipodi="http://sodipodi.sourceforge.net/DTD/sodipodi-0.dtd"
   xmlns:inkscape="http://www.inkscape.org/namespaces/inkscape"
   sodipodi:docname="search.svg"
   inkscape:version="1.0 (6e3e5246a0, 2020-05-07)"
   id="svg8"
   version="1.1"
   viewBox="0 0 6.6145835 6.6145835"
   height="6.6145835mm"
   width="6.6145835mm">
  <defs
     id="defs2" />
  <sodipodi:namedview
     inkscape:window-maximized="1"
     inkscape:window-y="57"
     inkscape:window-x="0"
     inkscape:window-height="1016"
     inkscape:window-width="1920"
     showgrid="false"
     inkscape:document-rotation="0"
     inkscape:current-layer="layer1"
     inkscape:document-units="mm"
     inkscape:cy="10.282575"
     inkscape:cx="9.334952"
     inkscape:zoom="15.839192"
     inkscape:pageshadow="2"
     inkscape:pageopacity="0.0"
     borderopacity="1.0"
     bordercolor="#666666"
     pagecolor="#ffffff"
     id="base" />
  <metadata
     id="metadata5">
    <rdf:RDF>
      <cc:Work
         rdf:about="">
        <dc:format>image/svg+xml</dc:format>
        <dc:type
           rdf:resource="http://purl.org/dc/dcmitype/StillImage" />
        <dc:title></dc:title>
      </cc:Work>
    </rdf:RDF>
  </metadata>
  <g
     transform="translate(-88.713095,-150.91222)"
     id="layer1"
     inkscape:groupmode="layer"
     inkscape:label="Layer 1">
    <g
       style="fill:#ffffff;fill-opacity:1"
       transform="matrix(0.05713703,0,0,0.05824742,86.762615,145.23662)"
       id="g7732">
      <path
         id="path14"
         style="fill:#ffffff;fill-opacity:1;stroke-width:0.999999"
         d="m 283.7207,368.27539 a 154.99251,154.99251 0 0 0 -109.30273,45.39453 154.99251,154.99251 0 0 0 0,219.19336 154.99251,154.99251 0 0 0 219.19141,0 154.99251,154.99251 0 0 0 0,-219.19336 154.99251,154.99251 0 0 0 -109.88868,-45.39453 z m 0.0137,32.66992 a 122.32161,122.32161 0 0 1 86.77343,35.82813 122.32161,122.32161 0 0 1 0,172.98828 122.32161,122.32161 0 0 1 -172.98828,0 122.32161,122.32161 0 0 1 0,-172.98828 122.32161,122.32161 0 0 1 86.21485,-35.82813 z"
         transform="scale(0.26458333)" />
      <rect
         style="fill:#ffffff;fill-opacity:1;stroke-width:0.272746"
         id="rect862"
         width="61.065208"
         height="13.511357"
         x="187.37639"
         y="36.445484"
         transform="rotate(45)" />
    </g>
  </g>
</svg>
